<svg xmlns="http://www.w3.org/2000/svg" version="1.1" xmlns:xlink="http://www.w3.org/1999/xlink" xmlns:svgjs="http://svgjs.com/svgjs" width="36" height="32"><svg width="36" height="32" viewBox="0 0 36 32" fill="none" xmlns="http://www.w3.org/2000/svg">
<rect x="32" y="19" width="1" height="1" fill="black"></rect>
<rect x="33" y="20" width="1" height="1" fill="black"></rect>
<rect x="33" y="21" width="1" height="1" fill="black"></rect>
<rect x="32" y="22" width="1" height="1" fill="black"></rect>
<rect x="29" y="18" width="1" height="1" fill="black"></rect>
<rect x="29" y="23" width="1" height="1" fill="black"></rect>
<rect x="28" y="17" width="1" height="1" fill="black"></rect>
<rect x="28" y="24" width="1" height="1" fill="black"></rect>
<rect x="29" y="16" width="5" height="1" fill="black"></rect>
<rect x="29" y="25" width="5" height="1" fill="black"></rect>
<rect x="34" y="17" width="1" height="1" fill="black"></rect>
<rect x="34" y="24" width="1" height="1" fill="black"></rect>
<rect x="33" y="18" width="1" height="1" fill="black"></rect>
<rect x="33" y="23" width="1" height="1" fill="black"></rect>
<rect x="30" y="19" width="1" height="1" fill="black"></rect>
<rect x="23" y="20" width="2" height="1" fill="#3A3A32"></rect>
<rect x="23" y="21" width="6" height="1" fill="#3A3A32"></rect>
<rect x="30" y="22" width="1" height="1" fill="black"></rect>
<rect x="29" y="20" width="1" height="2" fill="black"></rect>
<rect x="25" y="20" width="4" height="1" fill="#525248"></rect>
<rect x="30" y="20" width="3" height="1" fill="#BCBCBC"></rect>
<rect x="29" y="17" width="5" height="1" fill="#BCBCBC"></rect>
<rect x="30" y="18" width="3" height="1" fill="#BCBCBC"></rect>
<rect x="31" y="19" width="1" height="1" fill="#BCBCBC"></rect>
<rect x="30" y="21" width="3" height="1" fill="#9D9D9D"></rect>
<rect x="29" y="24" width="5" height="1" fill="#9D9D9D"></rect>
<rect x="30" y="23" width="3" height="1" fill="#9D9D9D"></rect>
<rect x="31" y="22" width="1" height="1" fill="#9D9D9D"></rect>
<rect x="2" y="17" width="8" height="1" fill="black"></rect>
<rect x="9" y="23" width="1" height="1" fill="black"></rect>
<rect x="2" y="23" width="1" height="1" fill="black"></rect>
<rect x="1" y="17" width="1" height="6" fill="black"></rect>
<rect x="10" y="17" width="1" height="6" fill="black"></rect>
<rect x="5" y="26" width="2" height="1" fill="black"></rect>
<rect x="7" y="25" width="1" height="1" fill="black"></rect>
<rect x="8" y="24" width="1" height="1" fill="black"></rect>
<rect x="3" y="24" width="1" height="1" fill="black"></rect>
<rect x="4" y="25" width="1" height="1" fill="black"></rect>
<rect x="5" y="25" width="1" height="1" fill="#83A4E3"></rect>
<rect x="2" y="18" width="1" height="3" fill="#83A4E3"></rect>
<rect x="2" y="21" width="1" height="1" fill="#83A4E3"></rect>
<rect x="2" y="22" width="1" height="1" fill="#83A4E3"></rect>
<rect x="3" y="23" width="1" height="1" fill="#83A4E3"></rect>
<rect x="4" y="24" width="1" height="1" fill="#83A4E3"></rect>
<rect x="6" y="25" width="1" height="1" fill="#83A4E3"></rect>
<rect x="7" y="24" width="1" height="1" fill="#83A4E3"></rect>
<rect x="8" y="23" width="1" height="1" fill="#83A4E3"></rect>
<rect x="3" y="18" width="6" height="1" fill="#83A4E3"></rect>
<rect x="9" y="18" width="1" height="5" fill="#83A4E3"></rect>
<rect x="4" y="20" width="1" height="2" fill="#83A4E3"></rect>
<rect x="5" y="20" width="3" height="1" fill="#83A4E3"></rect>
<rect x="5" y="22" width="2" height="1" fill="#83A4E3"></rect>
<rect x="7" y="21" width="1" height="1" fill="#83A4E3"></rect>
<path fill-rule="evenodd" clip-rule="evenodd" d="M10 3V4H11V3H12V2.007H9.9928L10 3ZM12 2H15H18V1H12V2ZM18 3H20V2H17.9885L18 3ZM20 4H21V3H20V4ZM21 5.55V7H17.4964H13.9928V9L17 9.0053V11.0027V13H15H13V12.5V12H11.5H10V11V10H9.5535H9V12H7V13H9.05H11V16H10H9V16.5V17H8H7V16H6.5552H6V18H10V24H11V26H12.011V25H13.0055H14V26.45V27.9H14.45H15V25.95V24H13.45H12V23.5V23H11.5H11V22V21H11.5H12V21.5V22H12.4945H12.989L13 23L15 23.0072V23.4536V24H15.5H16V23.4527V23.0053H19.011V22H19.5055H20V23V24H20.4445H21V23.0053H23V22V19H23.95V18V17V16H25V15.4445V15H22.95H21V14.0055V13.011L22.011 13V12H22.9555H23.9885V11H22.011V9H21.4464H21V11.05V13H20H19V11V9H19.9448H21V8H22V6V5.1V4H21.45H21V5.55ZM12 7H10V6H9.00001L9 5H8V7.5V8.75V10H8.55H9V8.95V8H10.5H12V7.5V7C12 6.33333 12 7.66667 12 7ZM23.9885 13H25V12H23.9885V13ZM6 13.55V14H6.55H7V13.55V13H6.55H6V13.55ZM25 14V15H25.45H26V14V13H25.45H25V14ZM16 15H19L19.011 14H19.5055H20V16.5V19H19.5H19V19.5V20H16.5H14V20.5V21H16H18V21.5V22H15.5H13V21.5V21H12.5H12V20.5V20H11.5H11V18V16H12V17.5V19H12.5H13V14H14.4945H15.989L16 15ZM5 15V16H5.55H6V15V14H5.55H5V15ZM23 17V18H22.5H22V19V20H21.5H21V20.5V21H21.5H22V21.5V22H21H20V21V20H20.5H21V18V16H22H23V17ZM13 19.5V20H13.5H14V19.5V19H13.5H13V19.5ZM16 26.9445V29.989H17V31H19.5055H22V30V29H21.45H21V29.55V30H19.5H18V29.5V29H19.45H21V27.05V25H20.45H20V26.55V28H18.5H17V26.5V25H18.45H20V24H18H16V26.9445ZM10 27V28H10.55H11V27V26H10.55H10V27ZM11 28.5V29H12.5H14V28H12.5H11V28.5ZM10 30V31H12.5H15V30V29H14.45H14V29.55V30H12.5H11V29.55V29H10.55H10V30Z" fill="black"></path>
<rect x="11" y="3" width="6" height="1" fill="#525248"></rect>
<rect x="12" y="3.8999" width="5" height="1.1" fill="#525248"></rect>
<rect x="14" y="5" width="3" height="1" fill="#525248"></rect>
<rect x="14" y="6" width="2" height="1" fill="#525248"></rect>
<rect x="13" y="7" width="1" height="5" fill="#525248"></rect>
<rect x="12" y="8" width="1" height="3" fill="#525248"></rect>
<rect x="11" y="9" width="1" height="1" fill="#525248"></rect>
<rect x="12" y="2" width="2" height="1.1" fill="#525248"></rect>
<rect x="13" y="5" width="1" height="2" fill="#525248"></rect>
<rect x="12" y="7" width="1" height="1" fill="#3A3A32"></rect>
<rect x="10" y="8" width="1" height="4" fill="#3A3A32"></rect>
<rect x="9.00001" y="8" width="1" height="2" fill="#3A3A32"></rect>
<rect x="11" y="8" width="1" height="1" fill="#3A3A32"></rect>
<rect x="11" y="10" width="1" height="2" fill="#3A3A32"></rect>
<rect x="12" y="11" width="1" height="1" fill="#3A3A32"></rect>
<rect x="17" y="2" width="1" height="5" fill="#959482"></rect>
<rect x="18" y="3" width="1" height="4" fill="#959482"></rect>
<path d="M19 3H20V7H19V3Z" fill="#959482"></path>
<rect x="20" y="4" width="1" height="3" fill="#959482"></rect>
<rect x="14" y="2" width="4" height="1" fill="#959482"></rect>
<rect x="16" y="6" width="1" height="1" fill="#959482"></rect>
<rect x="14" y="9" width="3" height="1" fill="#959482"></rect>
<rect x="7.00001" y="14" width="3" height="1" fill="#959482"></rect>
<rect x="7.00001" y="15" width="1" height="1" fill="#959482"></rect>
<rect x="8.00001" y="13" width="1" height="1" fill="#959482"></rect>
<rect x="16" y="10" width="1" height="2" fill="#959482"></rect>
<rect x="10" y="13" width="1" height="2" fill="#525248"></rect>
<rect x="9.00001" y="13" width="1" height="1" fill="#525248"></rect>
<rect x="7.00001" y="13" width="1" height="1" fill="#525248"></rect>
<rect x="6.00001" y="14" width="1" height="2" fill="#525248"></rect>
<rect x="8.00001" y="15" width="2" height="1" fill="#525248"></rect>
<rect x="7.00001" y="16" width="2" height="1" fill="#525248"></rect>
<rect x="16" y="12" width="1" height="1" fill="#525248"></rect>
<rect x="14" y="10" width="2" height="2" fill="#525248"></rect>
<rect x="13" y="14" width="2" height="5" fill="#525248"></rect>
<rect x="14" y="19" width="2" height="1" fill="#525248"></rect>
<rect x="16" y="19" width="2" height="1" fill="#525248"></rect>
<rect x="15" y="17" width="2" height="2" fill="#525248"></rect>
<rect x="15" y="16" width="1" height="1" fill="#525248"></rect>
<rect x="17" y="18" width="1" height="1" fill="#525248"></rect>
<rect x="18" y="19" width="1" height="1" fill="#525248"></rect>
<rect x="19" y="10" width="2" height="3" fill="#525248"></rect>
<rect x="19" y="9" width="2" height="1" fill="#959482"></rect>
<rect x="23" y="13" width="2" height="1" fill="#959482"></rect>
<rect x="23" y="14" width="2" height="1" fill="#525248"></rect>
<rect x="22" y="13" width="1" height="1" fill="#525248"></rect>
<rect x="21" y="13" width="1" height="2" fill="#3A3A32"></rect>
<rect x="22" y="14" width="1" height="1" fill="#3A3A32"></rect>
<rect x="13" y="12" width="3" height="1" fill="#3A3A32"></rect>
<rect x="10" y="15" width="1" height="1" fill="#3A3A32"></rect>
<rect x="22" y="12" width="2" height="1" fill="#959482"></rect>
<rect x="19" y="14" width="1" height="4" fill="#959482"></rect>
<rect x="18" y="15" width="1" height="3" fill="#959482"></rect>
<rect x="17" y="15" width="1" height="2" fill="#959482"></rect>
<rect x="16" y="15" width="1" height="1" fill="#959482"></rect>
<rect x="15" y="14" width="1" height="2" fill="#959482"></rect>
<rect x="16" y="16" width="1" height="1" fill="#959482"></rect>
<rect x="17" y="17" width="1" height="1" fill="#959482"></rect>
<rect x="18" y="18" width="1" height="1" fill="#959482"></rect>
<rect x="19" y="18" width="1" height="1" fill="#525248"></rect>
<rect x="21" y="16" width="2" height="1" fill="#3A3A32"></rect>
<rect x="21" y="17" width="1" height="1" fill="#3A3A32"></rect>
<rect x="22" y="17" width="1" height="1" fill="#525248"></rect>
<rect x="21" y="18" width="1" height="2" fill="#525248"></rect>
<rect x="11" y="16" width="1" height="4" fill="#23221E"></rect>
<rect x="12" y="19" width="1" height="2" fill="#23221E"></rect>
<rect x="12" y="22" width="1" height="2" fill="#525248"></rect>
<rect x="11" y="26" width="2" height="1" fill="#525248"></rect>
<rect x="17" y="26" width="2" height="1" fill="#525248"></rect>
<rect x="17" y="25" width="1" height="1" fill="#525248"></rect>
<rect x="11" y="29" width="1" height="1" fill="#525248"></rect>
<rect x="18" y="29" width="1" height="1" fill="#525248"></rect>
<rect x="11" y="27" width="3" height="1" fill="#3A3A32"></rect>
<rect x="17" y="27" width="3" height="1" fill="#3A3A32"></rect>
<rect x="16" y="23" width="1" height="1" fill="#525248"></rect>
<rect x="19" y="22" width="1" height="2" fill="#525248"></rect>
<rect x="20" y="20" width="1" height="2" fill="#525248"></rect>
<rect x="21" y="21" width="1" height="1" fill="#525248"></rect>
<rect x="13" y="23" width="2" height="1" fill="#959482"></rect>
<rect x="12" y="25" width="2" height="1" fill="#959482"></rect>
<rect x="18" y="25" width="2" height="1" fill="#959482"></rect>
<rect x="12" y="29" width="2" height="1" fill="#959482"></rect>
<rect x="19" y="29" width="2" height="1" fill="#959482"></rect>
<rect x="13" y="26" width="1" height="1" fill="#959482"></rect>
<rect x="19" y="26" width="1" height="1" fill="#959482"></rect>
<rect x="17" y="23" width="2" height="1" fill="#959482"></rect>
<rect x="11" y="21" width="1" height="2" fill="#525248"></rect>
<rect x="13" y="20" width="1" height="2" fill="#23221E"></rect>
<rect x="14" y="21" width="4" height="1" fill="#23221E"></rect>
<rect x="9" y="4" width="1" height="1" fill="black"></rect>
<rect x="9" y="5" width="4" height="1" fill="#3A3A32"></rect>
<rect x="10" y="6" width="3" height="1" fill="#3A3A32"></rect>
<rect x="10" y="4" width="2" height="1" fill="#3A3A32"></rect>
</svg><style>@media (prefers-color-scheme: light) { :root { filter: none; } }
</style></svg>